<?xml version="1.0" standalone="no"?>
<!DOCTYPE svg PUBLIC "-//W3C//DTD SVG 1.1//EN" "http://www.w3.org/Graphics/SVG/1.1/DTD/svg11.dtd" >
<svg xmlns="http://www.w3.org/2000/svg">
<metadata></metadata>
<defs>
<font id="sansserifbldflf-italicitalic" horiz-adv-x="1671" >
<font-face units-per-em="2048" ascent="1638" descent="-410" />
<missing-glyph horiz-adv-x="710" />
<glyph unicode="&#xfb01;" horiz-adv-x="1288" d="M178 0l115 653h-115l51 291h115l41 227q12 70 50.5 130.5t103.5 110t165.5 78t225.5 28.5q228 0 332 -93.5t104 -257.5q0 -41 -6 -84h-354q4 28 4 41q0 111 -117 111q-146 0 -168 -137l-25 -154h205l-53 -291h-205l-115 -653h-354zM815 0l168 944h354l-168 -944h-354z " />
<glyph unicode="&#xfb02;" horiz-adv-x="1288" d="M178 0l115 653h-115l51 291h115l29 186q11 78 47.5 145t99.5 123t164 88t229 32q101 0 181.5 -24t130 -62t82 -89.5t45 -102t12.5 -103.5q0 -38 -6 -68l-189 -1069h-354l193 1087q4 28 4 41q0 47 -27.5 77t-91.5 30q-79 0 -118 -36t-48 -91l-27 -164h205l-53 -291h-205 l-115 -653h-354z" />
<glyph horiz-adv-x="2048" />
<glyph horiz-adv-x="2048" />
<glyph unicode="&#xd;" horiz-adv-x="2048" />
<glyph unicode=" "  horiz-adv-x="710" />
<glyph unicode="&#x09;" horiz-adv-x="710" />
<glyph unicode="&#xa0;" horiz-adv-x="710" />
<glyph unicode="!" horiz-adv-x="626" d="M162 156q0 83 58.5 148t158.5 65q86 0 132 -49.5t46 -120.5q0 -83 -58.5 -148t-158.5 -65q-86 0 -132 49.5t-46 120.5zM225 455l178 1007h355l-176 -1007h-357z" />
<glyph unicode="&#x22;" horiz-adv-x="700" d="M356 1139l45 393h156l-92 -393h-109zM657 1139l45 393h156l-94 -393h-107z" />
<glyph unicode="#" horiz-adv-x="1576" d="M180 549l96 225h256l99 234h-254l94 221h254l104 244h228l-105 -244h269l104 244h227l-104 -244h250l-94 -221h-250l-99 -234h250l-96 -225h-250l-104 -246h-228l105 246h-268l-105 -246h-227l104 246h-256zM760 774h268l98 234h-268z" />
<glyph unicode="$" horiz-adv-x="1232" d="M137 203l197 235q55 -55 145 -95t187 -40q118 0 182.5 41t64.5 117q0 135 -165 168q-94 19 -163.5 48t-124 76t-82.5 118.5t-28 166.5q0 78 36 154.5t99.5 139.5t163 102t215.5 39l17 104h145l-20 -104q88 -6 184 -37.5t162 -77.5l-160 -262q-141 88 -297 88 q-94 0 -143.5 -35t-49.5 -96q0 -55 34.5 -82t113.5 -43q218 -42 323 -158t105 -295q0 -224 -142.5 -351.5t-387.5 -127.5l-29 -162h-146l31 162q-137 7 -257.5 61t-209.5 146z" />
<glyph unicode="%" horiz-adv-x="1431" d="M158 0l1155 1462h188l-1157 -1462h-186zM246 1186q0 62 24.5 121t69 107t115.5 77t157 29q148 0 227 -80t79 -195q0 -62 -24 -121t-68.5 -107t-115 -77t-155.5 -29q-149 0 -229 80t-80 195zM459 1206q0 -48 31 -81t88 -33q61 0 96 40.5t35 92.5q0 48 -30 81t-87 33 q-61 0 -97 -40t-36 -93zM760 254q0 61 24.5 119.5t69 106.5t116 77t158.5 29q148 0 226 -79.5t78 -195.5q0 -61 -24 -119.5t-68.5 -106t-114.5 -76.5t-154 -29q-151 0 -231 79t-80 195zM973 274q0 -48 31.5 -81t87.5 -33q60 0 95.5 40.5t35.5 90.5q0 49 -29.5 82t-85.5 33 q-61 0 -98 -39.5t-37 -92.5z" />
<glyph unicode="&#x26;" horiz-adv-x="1388" d="M135 313q0 142 85 244.5t337 267.5l-45 90l-10 20t-13.5 30.5t-11.5 35.5t-10.5 52t-3.5 63q0 66 29.5 131t82 117.5t132 84.5t172.5 32q90 0 161 -25t113.5 -67.5t64 -95t21.5 -111.5q0 -29 -5.5 -56.5t-13 -50.5t-24.5 -47.5t-29 -41.5t-38.5 -41t-41.5 -37.5 t-49 -37.5t-50 -35.5t-55 -37.5q-19 -13 -28 -19l129 -260l246 156l109 -230l-242 -147l151 -297h-321l-70 139q-27 -15 -82.5 -47.5t-78.5 -43.5t-68 -28t-93 -22.5t-112 -5.5q-148 0 -243 89.5t-95 231.5zM440 373q0 -48 33 -81.5t88 -33.5q16 0 31 2.5t33.5 10t30 12 t34 18.5t30.5 19t36 23.5t35 23.5l-132 256q-110 -63 -164.5 -122.5t-54.5 -127.5zM731 1143q0 -29 21 -70l45 -84q94 65 123.5 98t29.5 78q0 40 -28 60t-70 20q-50 0 -85.5 -29t-35.5 -73z" />
<glyph unicode="'" horiz-adv-x="407" d="M356 1139l45 393h156l-92 -393h-109z" />
<glyph unicode="(" horiz-adv-x="659" d="M129 496q0 193 67.5 382.5t215.5 373t362 321.5l121 -139q-241 -159 -381.5 -414.5t-140.5 -519.5q0 -166 59.5 -311.5t181.5 -254.5l-170 -131q-152 120 -233.5 302t-81.5 391z" />
<glyph unicode=")" horiz-adv-x="679" d="M18 -57q241 159 382 415t141 519q0 165 -60 310.5t-182 254.5l170 131q152 -120 233.5 -301.5t81.5 -390.5q0 -193 -67.5 -383t-215.5 -373.5t-362 -321.5z" />
<glyph unicode="*" horiz-adv-x="700" d="M287 1137q0 39 53 63q69 38 201 66q-135 32 -181 61q-41 29 -41 55q0 21 13.5 38.5t40.5 17.5q20 0 44.5 -13t48 -35.5t40 -40.5t34.5 -39l17 -22q-18 137 -18 154q0 119 65 119q45 0 45 -58q0 -59 -67 -215q9 7 49.5 42.5t63 54t55 37t53.5 18.5q45 0 45 -49 q0 -20 -13 -34.5t-55 -33.5q-27 -14 -85.5 -31t-100.5 -26q121 -28 182 -64q39 -20 39 -53q0 -22 -12 -38.5t-41 -16.5q-17 0 -37.5 10t-38.5 24.5t-37.5 34t-31.5 34t-25 29.5t-14 17q18 -129 18 -153q0 -119 -66 -119q-45 0 -45 57q0 13 2 26.5t6.5 31t8 28.5t12 33.5 t12 30.5t14.5 34t13 31q-3 -2 -34 -30.5t-59.5 -52.5t-66 -46t-61.5 -22q-45 0 -45 45z" />
<glyph unicode="+" horiz-adv-x="1097" d="M225 500l39 209h314l53 313h209l-54 -313h314l-37 -209h-313l-54 -314h-209l54 314h-316z" />
<glyph unicode="," horiz-adv-x="471" d="M-43 -305l246 530h270l-364 -530h-152z" />
<glyph unicode="-" horiz-adv-x="825" d="M236 500l38 209h533l-37 -209h-534z" />
<glyph unicode="." horiz-adv-x="522" d="M106 158q0 72 54.5 132t142.5 60t133 -46.5t45 -115.5q0 -80 -51 -140t-147 -60q-88 0 -132.5 48t-44.5 122z" />
<glyph unicode="/" horiz-adv-x="669" d="M10 -94l756 1620h147l-755 -1620h-148z" />
<glyph unicode="0" horiz-adv-x="1441" d="M190 647q0 121 30 239.5t92 225.5t148 189t206.5 130t259.5 48q120 0 220.5 -36.5t170.5 -99t118.5 -148t71.5 -182.5t23 -202q0 -121 -30 -239.5t-92 -225.5t-148 -188.5t-206 -129.5t-259 -48q-120 0 -220.5 36t-170.5 99t-119 148t-72 182t-23 202zM543 655 q0 -106 28.5 -192.5t91.5 -142.5t152 -56q110 0 195 83t126.5 204.5t41.5 253.5q0 106 -28.5 192.5t-92 142.5t-152.5 56q-83 0 -153.5 -48.5t-115 -126.5t-69 -173.5t-24.5 -192.5z" />
<glyph unicode="1" horiz-adv-x="784" d="M311 0l211 1192h-198l47 270h553l-256 -1462h-357z" />
<glyph unicode="2" horiz-adv-x="1153" d="M90 0l696 838q43 51 62.5 99.5t19.5 109.5q0 52 -30 86t-95 34q-67 0 -113 -63.5t-59 -147.5h-346q10 72 32 139.5t65.5 137t102 121t147.5 84t196 32.5q122 0 215.5 -29.5t151 -82.5t86 -122t28.5 -153q0 -123 -54.5 -225.5t-158.5 -226.5l-278 -338h379l-52 -293h-995z " />
<glyph unicode="3" horiz-adv-x="1261" d="M158 426h329q8 -59 65.5 -101t152.5 -42q108 0 173.5 60.5t65.5 170.5q0 101 -54.5 143.5t-164.5 42.5l29 166q61 1 104 8.5t80 26.5t55.5 55t18.5 91q0 71 -51 112t-138 41q-193 0 -219 -166h-330q5 66 26.5 127.5t66 120.5t107.5 102.5t157.5 70t208.5 26.5 q241 0 384.5 -110.5t143.5 -301.5q0 -112 -46 -182.5t-142 -112.5q116 -70 116 -297q0 -103 -38 -191t-111 -155t-188 -105t-261 -38q-102 0 -188.5 25.5t-146.5 68t-104.5 99.5t-68.5 118t-32 127z" />
<glyph unicode="4" horiz-adv-x="1421" d="M162 258l51 295l870 909h334l-164 -934h189l-47 -270h-189l-47 -258h-354l47 258h-690zM528 528h371l84 476z" />
<glyph unicode="5" horiz-adv-x="1191" d="M80 72l110 280q58 -29 87.5 -41t96 -25.5t146.5 -13.5q159 0 266 81t107 212q0 128 -92 194t-242 66q-57 0 -106 -8.5t-72.5 -17t-63.5 -25.5l218 688h735l-62 -270h-450l-51 -166q44 8 96 8q80 0 152 -26.5t133.5 -80.5t98 -147t36.5 -215q0 -270 -191 -427.5 t-516 -157.5q-110 0 -196 14t-131.5 31t-108.5 47z" />
<glyph unicode="6" horiz-adv-x="1390" d="M178 442q0 215 158 416l469 602h377l-389 -512q56 19 108 19q218 0 356 -124t138 -339q0 -174 -87.5 -297t-234 -181.5t-336.5 -58.5q-130 0 -236.5 37t-176.5 101.5t-108 151t-38 185.5zM530 440q0 -95 60 -160t176 -65q117 0 186.5 82.5t69.5 189.5q0 94 -58 160 t-167 66q-82 0 -144.5 -41.5t-92.5 -102.5t-30 -129z" />
<glyph unicode="7" horiz-adv-x="1232" d="M-4 -2l858 1194h-580l45 270h1131l-1053 -1464h-401z" />
<glyph unicode="8" horiz-adv-x="1187" d="M141 381q0 90 33.5 169.5t108.5 142t182 87.5q-152 121 -152 297q0 72 28 141t85.5 130.5t159 99t233.5 37.5q109 0 195.5 -29t140.5 -78.5t82.5 -112.5t28.5 -135q0 -79 -23 -142.5t-62.5 -104t-82 -65t-90.5 -38.5q64 -50 91 -79q95 -108 95 -263q0 -112 -47.5 -204 t-127 -150t-178.5 -89.5t-206 -31.5q-113 0 -208 35.5t-156.5 94.5t-95.5 133.5t-34 154.5zM504 424q0 -67 39.5 -111.5t118.5 -44.5q82 0 134 65t52 144q0 65 -39.5 109.5t-116.5 44.5q-84 0 -136 -63.5t-52 -143.5zM674 1073q0 -46 26 -78t76 -32q59 0 94 43t35 98 q0 46 -26 78t-76 32q-59 0 -94 -43t-35 -98z" />
<glyph unicode="9" horiz-adv-x="1431" d="M283 946q0 161 85.5 284.5t230.5 188t325 64.5q268 0 418.5 -131.5t150.5 -343.5q0 -215 -158 -416l-463 -592h-376l383 502q-56 -19 -109 -19q-217 0 -352 123.5t-135 339.5zM649 975q0 -102 57.5 -170t167.5 -68q121 0 194 81.5t73 182.5t-59.5 167.5t-176.5 66.5 q-78 0 -138 -40.5t-89 -98.5t-29 -121z" />
<glyph unicode=":" horiz-adv-x="522" d="M106 150q0 78 56 139t151 61q81 0 124.5 -46.5t43.5 -113.5q0 -80 -55.5 -141t-151.5 -61q-82 0 -125 47t-43 115zM211 725q0 79 56 140t151 61q81 0 124.5 -46.5t43.5 -113.5q0 -80 -56 -141.5t-151 -61.5q-82 0 -125 47t-43 115z" />
<glyph unicode=";" horiz-adv-x="501" d="M-43 -305l246 530h270l-364 -530h-152zM211 725q0 79 56 140t151 61q81 0 124.5 -46.5t43.5 -113.5q0 -80 -56 -141.5t-151 -61.5q-82 0 -125 47t-43 115z" />
<glyph unicode="&#x3c;" horiz-adv-x="720" d="M197 606l639 492l-54 -303l-254 -189l172 -188l-53 -303z" />
<glyph unicode="=" horiz-adv-x="888" d="M190 270l35 209h627l-35 -209h-627zM254 645l39 209h627l-37 -209h-629z" />
<glyph unicode="&#x3e;" horiz-adv-x="720" d="M152 115l53 303l237 188l-184 189l53 303l465 -492z" />
<glyph unicode="?" horiz-adv-x="1128" d="M233 1026q10 70 32 131.5t64.5 121t101.5 101.5t147 67.5t196 25.5q234 0 362 -123t128 -322q0 -418 -465 -453l-25 -143h-319l69 373h115q101 0 161 54t60 167q0 64 -29.5 103.5t-91.5 39.5q-126 0 -149 -143h-357zM371 156q0 83 58.5 148t158.5 65q86 0 132 -49.5 t46 -120.5q0 -83 -58.5 -148t-158.5 -65q-86 0 -132 49.5t-46 120.5z" />
<glyph unicode="@" horiz-adv-x="1382" d="M201 733q0 103 30 205t90.5 194t144 163t199 113t246.5 42q127 0 232.5 -33t186.5 -99.5t126 -175t45 -249.5q0 -73 -19 -142.5t-57.5 -131.5t-107.5 -100t-158 -38q-68 0 -107 31t-44 72q-103 -103 -252 -103q-128 0 -200.5 75t-72.5 192q0 67 25 132t70.5 118.5 t117 86.5t156.5 33q88 0 145 -32.5t76 -79.5l37 98h129l-143 -393q0 -60 20.5 -88.5t77.5 -28.5q54 0 95.5 28t64.5 73t34 95.5t11 102.5q0 239 -133 352t-361 113q-136 0 -252 -54.5t-191 -143t-117 -199.5t-42 -226q0 -90 30.5 -169.5t89 -142t154 -98.5t216.5 -36 q81 0 164 26t133 66l53 -74q-48 -43 -152.5 -80t-210.5 -37q-138 0 -249.5 44.5t-182.5 120t-109 172.5t-38 206zM608 764q0 -68 40.5 -114t115.5 -46q102 0 161.5 69t59.5 158q0 69 -40 116.5t-114 47.5q-101 0 -162 -71t-61 -160z" />
<glyph unicode="A" horiz-adv-x="1349" d="M41 0l707 1462h407l195 -1462h-355l-28 211h-465l-105 -211h-356zM655 537h273l-54 448z" />
<glyph unicode="B" horiz-adv-x="1232" d="M125 0l258 1462h428q64 0 125 -13.5t116 -42.5t96.5 -70.5t66 -102t24.5 -133.5q0 -256 -221 -324q37 -8 74.5 -29.5t72.5 -57.5t56.5 -92.5t21.5 -125.5q0 -226 -141.5 -348.5t-386.5 -122.5h-590zM528 272h138q101 0 161 47t60 142q0 76 -44.5 121t-123.5 45h-127z M639 899h76q172 0 172 166q0 56 -31.5 91.5t-89.5 35.5h-74z" />
<glyph unicode="C" horiz-adv-x="1363" d="M168 657q0 121 35.5 238t109 223t176 186t247.5 127.5t313 47.5q260 0 407 -84l-67 -381q-67 46 -151 70t-214 24q-101 0 -184.5 -36t-135.5 -95.5t-80 -132t-28 -148.5q0 -68 22 -128t65 -108.5t114 -77t161 -28.5q105 0 179.5 25t150.5 70l-67 -392 q-64 -39 -135.5 -60.5t-188.5 -21.5q-144 0 -265 37.5t-205.5 102t-143.5 151.5t-87 185.5t-28 205.5z" />
<glyph unicode="D" horiz-adv-x="1409" d="M125 0l258 1462h408q138 0 253 -38t194.5 -103t135 -152.5t81.5 -186.5t26 -206q0 -115 -30.5 -226t-95 -211t-155 -175t-220.5 -119.5t-282 -44.5h-573zM535 311h141q98 0 181 40.5t137.5 107.5t85 152t30.5 175q0 73 -22.5 137t-66.5 115.5t-117.5 81t-168.5 29.5h-51z " />
<glyph unicode="E" horiz-adv-x="1013" d="M127 0l258 1462h784l-53 -313h-430l-47 -260h405l-55 -314h-405l-47 -262h430l-54 -313h-786z" />
<glyph unicode="F" horiz-adv-x="1003" d="M127 0l258 1462h784l-53 -313h-430l-47 -260h408l-56 -314h-407l-101 -575h-356z" />
<glyph unicode="G" horiz-adv-x="1648" d="M154 684q0 118 33 232t101 216t163 179t229.5 122.5t290.5 45.5q227 0 389.5 -90.5t251.5 -245.5l-324 -182q-46 83 -132 133.5t-206 50.5q-102 0 -185 -38t-135 -102t-80 -144.5t-28 -168.5q0 -161 101.5 -270t289.5 -109q133 0 231.5 61t143.5 165h-336l49 272h707v-39 q0 -119 -32.5 -232.5t-100.5 -214.5t-164 -177t-231 -120t-293 -44q-145 0 -266.5 38.5t-206.5 104.5t-144.5 155t-87.5 190.5t-28 211.5z" />
<glyph unicode="H" horiz-adv-x="1421" d="M125 0l258 1462h354l-100 -573h469l100 573h355l-256 -1462h-357l101 573h-467l-101 -573h-356z" />
<glyph unicode="I" horiz-adv-x="636" d="M139 0l258 1462h355l-256 -1462h-357z" />
<glyph unicode="J" horiz-adv-x="1116" d="M121 180l260 226q22 -41 60 -67t85 -26q71 0 120.5 43t66.5 131l172 975h354l-178 -1011q-82 -467 -567 -467q-94 0 -170 30.5t-119.5 70t-83.5 95.5z" />
<glyph unicode="K" horiz-adv-x="1431" d="M125 0l258 1462h354l-92 -528l526 528h392l-670 -671l434 -791h-391l-344 629l-111 -629h-356z" />
<glyph unicode="L" horiz-adv-x="950" d="M125 0l258 1462h354l-202 -1149h391l-54 -313h-747z" />
<glyph unicode="M" horiz-adv-x="1765" d="M39 0l489 1462h379l101 -760l372 760h371l-2 -1462h-338v807l-407 -807h-209l-131 817l-269 -817h-356z" />
<glyph unicode="N" d="M147 0l259 1462h331l568 -891l155 891h361l-258 -1462h-355l-546 858l-150 -858h-365z" />
<glyph unicode="O" d="M186 684q0 118 33 232t101 216t163.5 179t230 122.5t290.5 45.5q145 0 267.5 -39t208 -106.5t145 -158t88 -192.5t28.5 -211q0 -119 -32.5 -232.5t-100.5 -214.5t-164 -177t-231 -120t-293 -44q-180 0 -323 58.5t-231 157t-134 222.5t-46 262zM555 692q0 -161 101.5 -270 t289.5 -109q102 0 184.5 38t134.5 101.5t79.5 144t27.5 169.5q0 71 -24.5 137t-71 121t-123 88t-170.5 33q-102 0 -185 -38t-135 -102t-80 -144.5t-28 -168.5z" />
<glyph unicode="P" horiz-adv-x="1175" d="M125 0l258 1462h473q212 0 338.5 -117.5t126.5 -312.5q0 -233 -152 -361t-417 -128h-174l-97 -543h-356zM631 856h160q75 0 123.5 42t48.5 120q0 56 -35.5 93.5t-93.5 37.5h-150z" />
<glyph unicode="Q" horiz-adv-x="1640" d="M186 684q0 118 33 232t101 216t163.5 179t230 122.5t290.5 45.5q145 0 267.5 -39t208 -106.5t145 -158t88 -192.5t28.5 -211q0 -218 -108 -407.5t-310 -290.5l92 -195l-336 -49l-75 158q-54 -4 -84 -4q-180 0 -323 58.5t-231 157t-134 222.5t-46 262zM555 692 q0 -136 74.5 -238t214.5 -130l-88 186l336 49l88 -182q93 60 142.5 163.5t49.5 225.5q0 71 -24.5 137t-71 121t-123 88t-170.5 33q-102 0 -185 -38t-135 -102t-80 -144.5t-28 -168.5z" />
<glyph unicode="R" horiz-adv-x="1261" d="M125 0l258 1462h473q212 0 338.5 -117.5t126.5 -312.5q0 -186 -98 -306.5t-277 -162.5l258 -563h-381l-245 543l-97 -543h-356zM631 856h160q75 0 123.5 42t48.5 120q0 56 -35.5 93.5t-93.5 37.5h-150z" />
<glyph unicode="S" horiz-adv-x="1187" d="M72 199l204 239q77 -65 160 -101t189 -36q92 0 141 43.5t49 118.5q0 134 -182 172q-90 19 -158 49t-120 76t-78.5 113.5t-26.5 154.5q0 84 38 163t107 141.5t177 100t237 37.5q167 0 269 -31.5t210 -99.5l-166 -258q-71 43 -127.5 62.5t-134.5 19.5q-77 0 -125.5 -33 t-48.5 -96q0 -38 34 -70t105 -46q404 -87 404 -426q0 -238 -166 -371t-465 -133q-301 0 -526 211z" />
<glyph unicode="T" horiz-adv-x="1118" d="M303 1149l53 313h942l-55 -313h-293l-202 -1149h-355l203 1149h-293z" />
<glyph unicode="U" horiz-adv-x="1320" d="M190 422q0 55 13 131l159 909h355l-164 -930q-4 -32 -4 -49q0 -82 52 -123t128 -41q89 0 150 46t79 143l168 954h355l-181 -1030q-40 -226 -203 -336t-421 -110q-103 0 -189.5 26.5t-153.5 78.5t-105 136.5t-38 194.5z" />
<glyph unicode="V" horiz-adv-x="1495" d="M293 1462h354l191 -999l540 999h357l-801 -1462h-354z" />
<glyph unicode="W" horiz-adv-x="1906" d="M283 1462h342l71 -846l383 846h271l69 -846l391 846h340l-671 -1462h-283l-104 793l-390 -793h-284z" />
<glyph unicode="X" horiz-adv-x="1421" d="M39 0l616 774l-321 688h397l174 -379l293 379h418l-559 -698l354 -764h-401l-207 455l-363 -455h-401z" />
<glyph unicode="Y" horiz-adv-x="1320" d="M297 1462h399l172 -381l293 381h418l-590 -721l-133 -741h-354l131 741z" />
<glyph unicode="Z" horiz-adv-x="1351" d="M2 0l893 1169h-584l51 293h1172l-895 -1169h659l-53 -293h-1243z" />
<glyph unicode="[" horiz-adv-x="575" d="M82 -219l328 1849h346l-27 -147h-137l-275 -1557h146l-29 -145h-352z" />
<glyph unicode="\" horiz-adv-x="626" d="M299 1536h145l156 -1610h-147z" />
<glyph unicode="]" horiz-adv-x="575" d="M72 -219l26 145h144l274 1557h-137l27 147h346l-328 -1849h-352z" />
<glyph unicode="^" horiz-adv-x="768" d="M98 639l385 707h74l168 -707h-61l-166 516l-316 -516h-84z" />
<glyph unicode="_" horiz-adv-x="731" d="M-12 -135l12 74h774l-12 -74h-774z" />
<glyph unicode="`" horiz-adv-x="565" d="M78 1382l127 127l254 -325l-56 -58z" />
<glyph unicode="a" horiz-adv-x="1234" d="M145 422q0 99 34.5 192.5t100.5 170t173 123t239 46.5q178 0 275 -73l14 69h313l-168 -950h-313l10 59q-97 -79 -264 -79q-99 0 -179 37t-130.5 99t-77.5 141t-27 165zM494 459q0 -75 49 -129t139 -54q98 0 155.5 64t57.5 147q0 75 -49 129t-139 54q-98 0 -155.5 -64 t-57.5 -147z" />
<glyph unicode="b" horiz-adv-x="1191" d="M82 0l266 1516h314l-113 -625q38 30 85.5 46.5t133.5 16.5q117 0 209.5 -37t148.5 -100.5t85.5 -142t29.5 -166.5q0 -79 -19 -153.5t-61 -143t-103 -119.5t-152 -81.5t-201 -30.5q-123 0 -181 16.5t-118 62.5l-11 -59h-313zM479 459q0 -75 49.5 -129t139.5 -54 q98 0 155.5 64t57.5 147q0 75 -49.5 129t-139.5 54q-98 0 -155.5 -64t-57.5 -147z" />
<glyph unicode="c" horiz-adv-x="868" d="M119 410q0 100 35.5 195.5t101 174t170.5 126.5t233 48q166 0 295 -55l-53 -307q-35 20 -54 29t-61.5 18.5t-95.5 9.5q-91 0 -144.5 -59.5t-53.5 -136.5q0 -66 42.5 -112t122.5 -46q66 0 109 16.5t94 50.5l-55 -315q-106 -70 -266 -70q-103 0 -184.5 36t-132 97t-77 138 t-26.5 162z" />
<glyph unicode="d" horiz-adv-x="1198" d="M150 424q0 78 21 154t64 144t104 119.5t147 82t186 30.5q99 0 162 -18.5t116 -54.5l113 635h313l-266 -1516h-313l8 49q-69 -69 -223 -69q-105 0 -189.5 37t-136.5 99.5t-79 141t-27 166.5zM492 459q0 -75 49 -129t139 -54q98 0 155.5 64t57.5 147q0 75 -49 129t-139 54 q-98 0 -155.5 -64t-57.5 -147z" />
<glyph unicode="e" horiz-adv-x="1107" d="M121 449q0 99 34.5 191t98.5 166.5t167.5 119.5t229.5 45q123 0 220 -40t155 -106.5t87.5 -145.5t29.5 -165q0 -53 -13 -113h-661q0 -85 35 -126.5t123 -41.5q72 0 106 21t51 55h314q-17 -49 -36.5 -88.5t-59 -87.5t-89.5 -80t-130 -54t-179 -22q-95 0 -175 26t-136 71 t-95.5 105.5t-58 128.5t-18.5 141zM492 604h309q0 24 -7 45t-22 40.5t-46 31.5t-73 12q-138 0 -161 -129z" />
<glyph unicode="f" horiz-adv-x="778" d="M178 0l115 653h-115l51 293h115l39 219q34 192 151.5 272.5t331.5 80.5q77 0 156 -21l-43 -250q-58 10 -96 10q-129 0 -146 -106l-37 -205h201l-53 -293h-201l-115 -653h-354z" />
<glyph unicode="g" horiz-adv-x="1288" d="M119 -80h311q6 -36 56 -61t132 -25q103 0 163.5 38t74.5 136l10 68q-21 -21 -32 -30t-37 -23.5t-62.5 -20.5t-87.5 -6q-109 0 -195 35.5t-137.5 96t-78.5 136t-27 160.5q0 98 35 191.5t98.5 169.5t164.5 122.5t222 46.5q193 0 281 -73l12 61h313l-170 -954 q-71 -406 -567 -406q-94 0 -172.5 20.5t-131.5 54t-91.5 78.5t-58 91t-25.5 94zM532 459q0 -75 49.5 -129t139.5 -54q98 0 155.5 64t57.5 147q0 75 -49.5 129t-139.5 54q-98 0 -155.5 -64t-57.5 -147z" />
<glyph unicode="h" horiz-adv-x="1222" d="M78 0l266 1516h356l-120 -697q106 142 315 142q155 0 251.5 -86t96.5 -248q0 -41 -10 -103l-92 -524h-355l86 489q2 12 2 35q0 68 -39 114t-108 46q-92 0 -144 -61.5t-69 -159.5l-82 -463h-354z" />
<glyph unicode="i" horiz-adv-x="540" d="M92 0l168 942h354l-168 -942h-354zM297 1270q0 83 58.5 148t158.5 65q86 0 132 -49.5t46 -120.5q0 -83 -58.5 -148t-158.5 -65q-86 0 -132 49.5t-46 120.5z" />
<glyph unicode="j" horiz-adv-x="534" d="M33 -418l241 1360h355l-240 -1360h-356zM307 1270q0 83 58.5 148t158.5 65q86 0 132 -49.5t46 -120.5q0 -83 -58.5 -148t-158.5 -65q-86 0 -132 49.5t-46 120.5z" />
<glyph unicode="k" horiz-adv-x="1329" d="M115 0l268 1516h354l-159 -908l413 336h395l-530 -440l412 -504h-414l-315 387l-68 -387h-356z" />
<glyph unicode="l" horiz-adv-x="626" d="M135 0l268 1516h355l-266 -1516h-357z" />
<glyph unicode="m" horiz-adv-x="1859" d="M90 0l168 942h354l-14 -76q121 92 336 92q195 0 295 -112q134 112 313 112q160 0 253 -81t93 -224q0 -43 -8 -82l-100 -571h-353l97 543q6 39 6 57q0 50 -32.5 85.5t-98.5 35.5q-74 0 -124.5 -50.5t-60.5 -111.5l-100 -559h-356l94 543q10 51 10 67q0 109 -133 109 q-78 0 -126.5 -44.5t-59.5 -111.5l-99 -563h-354z" />
<glyph unicode="n" horiz-adv-x="1191" d="M90 0l178 942h344l-16 -86q98 102 291 102q155 0 246.5 -87.5t91.5 -243.5q0 -37 -11 -105l-92 -522h-356l90 514q4 18 4 53q0 67 -33.5 107.5t-97.5 40.5q-47 0 -82.5 -17t-57 -45.5t-33 -58.5t-17.5 -64l-95 -530h-354z" />
<glyph unicode="o" horiz-adv-x="1122" d="M135 440q0 79 22 155t68 144t109.5 120t153.5 82t194 30q118 0 213 -39t154 -105.5t90.5 -149t31.5 -173.5q0 -104 -35.5 -198t-102.5 -169t-172.5 -119.5t-235.5 -44.5q-97 0 -178 25.5t-138 70t-97 104.5t-58.5 127t-18.5 140zM469 461q0 -77 46.5 -131t129.5 -54 q91 0 143 63t52 146q0 76 -45.5 130.5t-128.5 54.5q-91 0 -144 -63t-53 -146z" />
<glyph unicode="p" horiz-adv-x="1226" d="M49 -422l244 1368h313l-10 -57q99 78 246 78q108 0 194.5 -38.5t140.5 -103t82.5 -145t28.5 -168.5q0 -77 -20.5 -151.5t-64 -141.5t-104.5 -117.5t-148 -80t-189 -29.5q-84 0 -146.5 13t-93 28t-71.5 43l-86 -498h-316zM532 467q0 -75 49.5 -128.5t139.5 -53.5 q98 0 155.5 64t57.5 147q0 75 -49.5 128.5t-139.5 53.5q-98 0 -155.5 -64t-57.5 -147z" />
<glyph unicode="q" horiz-adv-x="1198" d="M137 428q0 98 35 191t99 169t166.5 122t226.5 46q81 0 136 -10.5t77.5 -22.5t52.5 -34l10 57h313l-241 -1368h-314l86 479q-38 -33 -83 -49t-128 -16q-107 0 -192 36t-137 98t-79.5 139t-27.5 163zM444 459q0 -75 49.5 -129t139.5 -54q98 0 155.5 64t57.5 147 q0 75 -49.5 129t-139.5 54q-98 0 -155.5 -64t-57.5 -147z" />
<glyph unicode="r" horiz-adv-x="845" d="M104 0l168 942h355l-13 -65q96 86 232 86q38 0 66.5 -4t38 -7t34.5 -12l-47 -268q-47 12 -123 12q-106 0 -178 -47.5t-90 -142.5l-88 -494h-355z" />
<glyph unicode="s" horiz-adv-x="878" d="M63 121l138 178q111 -92 229 -92q113 0 113 72q0 69 -107 86q-128 21 -193 90.5t-65 177.5q0 41 10.5 82t40.5 85.5t76 78t124.5 55.5t178.5 22q201 0 340 -88l-104 -190q-49 29 -91.5 44t-99.5 15q-44 0 -72 -17t-28 -48q0 -47 88 -60q135 -22 204.5 -98t69.5 -201 q0 -147 -104 -242.5t-295 -95.5q-116 0 -202.5 19.5t-139.5 48.5t-111 78z" />
<glyph unicode="t" horiz-adv-x="794" d="M193 0l116 657h-114l49 293h116l48 267h354l-47 -267h198l-51 -293h-198l-117 -657h-354z" />
<glyph unicode="u" horiz-adv-x="1132" d="M170 340q0 49 8 96l90 506h355l-95 -524q-4 -24 -4 -37q0 -52 28.5 -81.5t86.5 -29.5t93.5 35.5t43.5 83.5l98 553h355l-111 -625q-28 -153 -165 -246.5t-345 -93.5q-205 0 -321.5 95.5t-116.5 267.5z" />
<glyph unicode="v" horiz-adv-x="1181" d="M207 942h338l141 -496l301 496h348l-626 -942h-209z" />
<glyph unicode="w" horiz-adv-x="1798" d="M199 942h336l129 -498l317 498h170l143 -493l308 493h352l-584 -942h-246l-135 446l-284 -446h-248z" />
<glyph unicode="x" horiz-adv-x="1171" d="M2 0l477 477l-274 465h373l131 -225l225 225h381l-465 -465l283 -477h-375l-135 233l-240 -233h-381z" />
<glyph unicode="y" horiz-adv-x="1306" d="M100 -422l406 559l-307 813h352l186 -504l361 504h354l-997 -1372h-355z" />
<glyph unicode="z" horiz-adv-x="1097" d="M57 0l525 657h-363l51 293h957l-529 -657h383l-53 -293h-971z" />
<glyph unicode="{" horiz-adv-x="647" d="M209 727q130 90 149 207l66 373q15 87 53.5 149.5t97.5 98.5t130.5 52.5t160.5 16.5l-26 -158q-59 0 -97.5 -11t-61.5 -36.5t-34 -55t-18 -77.5l-62 -358q-20 -128 -190 -201q119 -81 119 -186q0 -13 -4 -41l-70 -389q-8 -54 -8 -70q0 -55 34 -79.5t123 -24.5l-28 -160 q-155 0 -243.5 68.5t-88.5 205.5q0 45 8 86l68 385q4 28 4 39q0 103 -82 166z" />
<glyph unicode="|" horiz-adv-x="366" d="M94 -94l289 1640h145l-288 -1640h-146z" />
<glyph unicode="}" horiz-adv-x="647" d="M43 -223l27 157q59 0 98 11.5t61.5 37t33.5 55t18 77.5l61 385q26 158 195 231q-119 66 -119 187q0 12 4 40l65 332q9 40 9 70q0 55 -34.5 79.5t-123.5 24.5l29 160q155 0 243 -68.5t88 -205.5q0 -45 -8 -86l-63 -328q-4 -28 -4 -39q0 -103 82 -166q-61 -42 -100.5 -94 t-51.5 -133l-68 -410q-52 -317 -442 -317z" />
<glyph unicode="~" horiz-adv-x="1013" d="M143 885q49 59 106.5 90t149.5 31q78 0 166 -43q5 -3 20.5 -12t21 -12.5t18.5 -10t21 -8.5t19.5 -4.5t22.5 -2.5q71 0 109 20.5t75 63.5l84 -82q-49 -59 -108 -89.5t-156 -30.5q-84 0 -160 45q-25 16 -39.5 24t-40 15.5t-53.5 7.5q-48 0 -82 -13t-48 -26t-42 -45z" />
<glyph unicode="&#xa1;" horiz-adv-x="626" d="M98 -281l176 1008h357l-178 -1008h-355zM299 983q0 83 58.5 148t158.5 65q86 0 132 -49.5t46 -120.5q0 -83 -58.5 -148t-158.5 -65q-86 0 -132 49.5t-46 120.5z" />
<glyph unicode="&#xa2;" horiz-adv-x="929" d="M236 643q0 68 18.5 134t56 126t89.5 105.5t125 72.5t157 27l18 115h115l-18 -117q106 -13 186 -70l-39 -202q-30 26 -50.5 40t-70.5 29t-112 15q-103 0 -165.5 -74t-62.5 -170q0 -85 54 -144t157 -59q68 0 114 20.5t91 57.5l-41 -221q-83 -45 -209 -45l-22 -125h-115 l23 125q-145 18 -222 119.5t-77 240.5z" />
<glyph unicode="&#xa3;" horiz-adv-x="1148" d="M125 -2v262q45 33 108.5 61.5t116.5 32.5q60 47 86.5 107t42.5 153h-239l28 158h213q-3 28 -15 59t-20.5 45.5t-29.5 47.5q-47 77 -47 166q0 77 26 143.5t79.5 121.5t146 86.5t213.5 31.5q171 0 288.5 -77.5t141.5 -199.5l-256 -117q-27 140 -170 140q-63 0 -102.5 -35 t-39.5 -105q0 -10 1.5 -20.5t3 -18t6.5 -18.5t7 -16t9.5 -17.5t9 -15.5t11 -17t10.5 -16q51 -87 57 -168h248l-27 -158h-221q-9 -100 -35.5 -172.5t-87.5 -122.5q78 -38 189 -38q127 0 239 98v-260q-70 -60 -149 -95.5t-197 -35.5q-109 0 -217 51q-3 1 -17 7t-18 8t-16.5 7 t-18.5 6.5t-17 4.5t-19 4.5t-18.5 2.5t-20.5 1q-70 0 -134.5 -20t-148.5 -62z" />
<glyph unicode="&#xa5;" horiz-adv-x="1347" d="M291 1460h405l172 -377l308 379h407l-594 -721h209l-22 -114h-209l-15 -84h209l-20 -115h-209l-76 -428h-354l76 428h-209l20 115h209l14 84h-209l21 114h209z" />
<glyph unicode="&#xa6;" horiz-adv-x="303" d="M94 0v553h111v-553h-111zM94 772v608h111v-608h-111z" />
<glyph unicode="&#xa7;" horiz-adv-x="1069" d="M-23 -96l152 194q37 -40 100 -66t131 -26q179 0 179 158q0 56 -34.5 88.5t-92.5 42.5q-166 26 -252 111.5t-86 246.5q0 115 67.5 198t159.5 114q-68 81 -68 190q0 176 132 287.5t346 111.5q234 0 385 -143l-152 -194q-37 40 -98.5 66t-132.5 26q-89 0 -133.5 -42.5 t-44.5 -107.5q0 -58 39.5 -94t107.5 -47q148 -24 235 -114t87 -230q0 -120 -59 -194t-171 -118q66 -79 66 -202q0 -63 -15.5 -119t-51.5 -108.5t-90.5 -90t-137.5 -60t-187 -22.5q-121 0 -222 41t-159 103zM354 645q0 -62 53.5 -94.5t118.5 -32.5q35 0 66 6.5t61.5 22 t48 46.5t17.5 75q0 62 -54 95.5t-118 33.5q-84 0 -138.5 -36t-54.5 -116z" />
<glyph unicode="&#xa8;" horiz-adv-x="751" d="M117 1280q0 71 46.5 120.5t127.5 49.5q65 0 103 -41t38 -104q0 -65 -43.5 -113.5t-122.5 -48.5q-70 0 -109.5 40.5t-39.5 96.5zM522 1280q0 71 46.5 120.5t127.5 49.5q65 0 103.5 -41t38.5 -104q0 -65 -43.5 -113.5t-122.5 -48.5q-70 0 -110 40.5t-40 96.5z" />
<glyph unicode="&#xa9;" horiz-adv-x="1204" d="M104 797q0 146 72.5 270t196.5 196t270 72t270 -72t196.5 -196t72.5 -270t-72.5 -270t-196.5 -196.5t-270 -72.5t-270 72.5t-196.5 196.5t-72.5 270zM145 797q0 -205 146.5 -351.5t351.5 -146.5t351.5 146.5t146.5 351.5q0 135 -67 249.5t-181.5 181t-249.5 66.5 t-249.5 -66.5t-181.5 -181t-67 -249.5zM377 807q0 106 72.5 180t193.5 74q113 0 195 -78v-49q-82 86 -195 86q-107 0 -166 -59.5t-59 -153.5q0 -90 59 -150.5t166 -60.5q72 0 113.5 22.5t81.5 65.5v-53q-72 -76 -195 -76q-125 0 -195.5 72.5t-70.5 179.5z" />
<glyph unicode="&#xaa;" horiz-adv-x="720" d="M160 694l10 72h551l-10 -72h-551zM199 1098q0 67 29 126t93 99.5t152 40.5q86 0 137 -37l6 35h158l-84 -477h-158l7 30q-48 -41 -133 -41q-98 0 -152.5 66t-54.5 158zM373 1116q0 -38 24.5 -65t69.5 -27q49 0 77.5 32t28.5 74q0 37 -24.5 64t-69.5 27q-49 0 -77.5 -31.5 t-28.5 -73.5z" />
<glyph unicode="&#xab;" horiz-adv-x="1277" d="M23 543l30 168l516 338l119 -201l-366 -221l327 -258l-162 -217zM594 543l29 168l516 338l118 -201l-364 -221l328 -258l-164 -217z" />
<glyph unicode="&#xac;" horiz-adv-x="815" d="M147 174q0 62 37.5 112t108.5 68q-68 56 -68 133q0 72 57 127.5t171 55.5q95 0 147.5 -45.5t52.5 -112.5q0 -68 -34 -106.5t-82 -51.5q84 -60 84 -155q0 -98 -75 -155.5t-177 -57.5q-100 0 -161 56.5t-61 131.5zM166 721l10 74h555l-8 -74h-557zM309 193q0 -30 18.5 -50 t53.5 -20q36 0 60 29t24 65q0 30 -17.5 50t-52.5 20q-38 0 -62 -29t-24 -65zM379 850l94 536h-88l21 123h247l-114 -659h-160zM387 485q0 -22 11.5 -35.5t33.5 -13.5q28 0 44 19.5t16 44.5q0 20 -13 34.5t-35 14.5q-26 0 -41.5 -19.5t-15.5 -44.5z" />
<glyph unicode="&#xad;" horiz-adv-x="825" d="M236 500l38 209h533l-37 -209h-534z" />
<glyph unicode="&#xae;" horiz-adv-x="847" d="M211 1128q0 66 20.5 125t56 102t81.5 74.5t98 47.5t104 16q125 0 208 -82t83 -201q0 -153 -104 -258.5t-254 -105.5q-126 0 -209.5 81.5t-83.5 200.5zM242 1133q0 -110 74.5 -183t193.5 -73q130 0 225.5 94t95.5 235q0 110 -74 183t-190 73q-80 0 -153.5 -39.5 t-122.5 -116.5t-49 -173zM401 991l48 373h143q43 0 67.5 -24.5t24.5 -63.5q0 -46 -29 -79.5t-88 -33.5h-16l98 -172h-37l-96 172h-63l-23 -172h-29zM455 1192h116q46 0 65 25t19 57q0 28 -16.5 44.5t-48.5 16.5h-117z" />
<glyph unicode="&#xaf;" horiz-adv-x="731" d="M80 1264l10 73h596l-10 -73h-596z" />
<glyph unicode="&#xb0;" horiz-adv-x="542" d="M293 1229q0 89 62.5 156t170.5 67q93 0 145 -54t52 -130q0 -86 -64 -152.5t-174 -66.5q-93 0 -142.5 52.5t-49.5 127.5zM362 1239q0 -51 35 -88t99 -37q72 0 113.5 44t41.5 102q0 53 -35 89.5t-100 36.5q-71 0 -112.5 -44.5t-41.5 -102.5z" />
<glyph unicode="&#xb1;" horiz-adv-x="919" d="M156 156l37 209h667l-37 -209h-667zM252 709l37 209h229l41 229h211l-43 -229h229l-34 -209h-230l-43 -230h-209l43 230h-231z" />
<glyph unicode="&#xb2;" horiz-adv-x="815" d="M231 856l314 377q37 46 37 94q0 24 -14.5 39.5t-43.5 15.5q-30 0 -50.5 -28t-27.5 -66h-155q6 41 21.5 79t43 74t74.5 57.5t107 21.5q108 0 161.5 -48.5t53.5 -128.5q0 -38 -15.5 -76.5t-31.5 -62.5t-48 -63l-127 -152h172l-24 -133h-447z" />
<glyph unicode="&#xb3;" horiz-adv-x="815" d="M233 1047h150q3 -27 28.5 -46.5t67.5 -19.5q49 0 79 27t30 77q0 84 -99 84l13 74q58 2 87 18.5t29 63.5q0 32 -23 51t-63 19q-85 0 -98 -76h-147q3 38 18.5 71.5t44.5 63.5t78 48t113 18q108 0 172.5 -49.5t64.5 -135.5q0 -95 -84 -133q51 -30 51 -133q0 -97 -69 -159 t-199 -62q-110 0 -172 59t-72 140z" />
<glyph unicode="&#xb4;" horiz-adv-x="606" d="M117 1184l256 325l127 -127l-330 -243z" />
<glyph unicode="&#xb5;" horiz-adv-x="815" d="M104 -2l314 377q37 46 37 94q0 24 -14.5 39.5t-43.5 15.5q-30 0 -50.5 -28t-27.5 -66h-155q6 41 21.5 79t43 74t74.5 57.5t107 21.5q108 0 161.5 -48.5t53.5 -128.5q0 -38 -15.5 -76.5t-31.5 -62.5t-48 -63l-127 -152h172l-24 -133h-447zM166 721l10 74h555l-8 -74h-557z M379 850l94 536h-88l21 123h247l-114 -659h-160z" />
<glyph unicode="&#xb6;" horiz-adv-x="1175" d="M254 932q0 129 44.5 232.5t118.5 167t165.5 97t191.5 33.5h320l-289 -1661h-178l127 742h-74q-58 0 -115.5 12.5t-114 42.5t-99.5 73.5t-70 111t-27 149.5zM909 -199l289 1661h176l-287 -1661h-178z" />
<glyph unicode="&#xb7;" horiz-adv-x="626" d="M211 733q0 72 54.5 132.5t142.5 60.5t133 -46.5t45 -115.5q0 -80 -51.5 -140.5t-147.5 -60.5q-87 0 -131.5 48t-44.5 122z" />
<glyph unicode="&#xb8;" horiz-adv-x="532" d="M102 -311l45 118q40 -24 74 -24q24 0 38.5 15.5t14.5 39.5q0 34 -41 60l48 102h122l-43 -98q34 -18 52 -51t18 -70q0 -69 -48 -104t-118 -35q-82 0 -162 47z" />
<glyph unicode="&#xb9;" horiz-adv-x="815" d="M379 850l94 536h-88l21 123h247l-114 -659h-160z" />
<glyph unicode="&#xba;" horiz-adv-x="751" d="M207 694l8 72h530l-10 -72h-528zM264 1098q0 106 73.5 186t201.5 80q116 0 180.5 -69t64.5 -165q0 -110 -73 -189t-201 -79q-117 0 -181.5 69.5t-64.5 166.5zM432 1108q0 -38 23.5 -65t64.5 -27q47 0 72.5 31t25.5 73q0 38 -23 66t-65 28q-45 0 -71.5 -32.5t-26.5 -73.5z " />
<glyph unicode="&#xbb;" horiz-adv-x="1277" d="M84 381l403 246l-331 264l151 219l479 -399l-30 -168l-559 -361zM680 381l403 246l-333 264l153 219l477 -399l-28 -168l-559 -361z" />
<glyph unicode="&#xbc;" horiz-adv-x="815" d="M86 109l23 133l391 409h149l-74 -422h87l-23 -120h-84l-20 -117h-160l20 117h-309zM166 721l10 74h555l-8 -74h-557zM250 229h168l37 215zM379 850l94 536h-88l21 123h247l-114 -659h-160z" />
<glyph unicode="&#xbd;" horiz-adv-x="815" d="M104 -2l314 377q37 46 37 94q0 24 -14.5 39.5t-43.5 15.5q-30 0 -50.5 -28t-27.5 -66h-155q6 41 21.5 79t43 74t74.5 57.5t107 21.5q108 0 161.5 -48.5t53.5 -128.5q0 -38 -15.5 -76.5t-31.5 -62.5t-48 -63l-127 -152h172l-24 -133h-447zM166 721l10 74h555l-8 -74h-557z M379 850l94 536h-88l21 123h247l-114 -659h-160z" />
<glyph unicode="&#xbe;" horiz-adv-x="815" d="M88 106l23 134l391 409h149l-73 -422h86l-23 -121h-84l-20 -116h-160l20 116h-309zM166 721l10 74h555l-8 -74h-557zM233 1047h150q3 -27 28.5 -46.5t67.5 -19.5q49 0 79 27t30 77q0 84 -99 84l13 74q58 2 87 18.5t29 63.5q0 32 -23 51t-63 19q-85 0 -98 -76h-147 q3 38 18.5 71.5t44.5 63.5t78 48t113 18q108 0 172.5 -49.5t64.5 -135.5q0 -95 -84 -133q51 -30 51 -133q0 -97 -69 -159t-199 -62q-110 0 -172 59t-72 140zM252 227h168l37 215z" />
<glyph unicode="&#xbf;" horiz-adv-x="1128" d="M84 160q0 417 465 452l24 144h320l-70 -373h-114q-101 0 -161.5 -54t-60.5 -167q0 -64 29.5 -104t91.5 -40q127 0 150 144h356q-10 -70 -32 -131.5t-64.5 -121t-101.5 -101.5t-147 -67.5t-196 -25.5q-234 0 -361.5 123t-127.5 322zM582 989q0 83 58.5 148t158.5 65 q86 0 132 -49.5t46 -120.5q0 -83 -58.5 -148t-158.5 -65q-86 0 -132 49.5t-46 120.5z" />
<glyph unicode="&#xc0;" horiz-adv-x="1349" d="M41 0l707 1462h407l195 -1462h-355l-28 211h-465l-105 -211h-356zM655 537h273l-54 448zM659 1784l113 114l221 -286l-51 -47z" />
<glyph unicode="&#xc1;" horiz-adv-x="1349" d="M41 0l707 1462h407l195 -1462h-355l-28 211h-465l-105 -211h-356zM655 537h273l-54 448zM940 1571l213 274l104 -106l-274 -203z" />
<glyph unicode="&#xc2;" horiz-adv-x="1349" d="M41 0l707 1462h407l195 -1462h-355l-28 211h-465l-105 -211h-356zM655 537h273l-54 448zM715 1632l243 246h70l193 -246l-47 -39l-191 131l-223 -131z" />
<glyph unicode="&#xc3;" horiz-adv-x="1349" d="M41 0l707 1462h407l195 -1462h-355l-28 211h-465l-105 -211h-356zM594 1642q45 53 96.5 81t132.5 28q70 0 150 -39q2 -1 14 -8t14.5 -8.5t13 -7.5t15.5 -7.5t15 -5t17 -5t17.5 -2.5t20.5 -1q53 0 83.5 18.5t65.5 57.5l76 -74q-45 -52 -98 -80t-140 -28q-71 0 -143 41 q-22 14 -36.5 22t-39.5 14.5t-55 6.5q-39 0 -67 -12t-39 -23t-37 -41zM655 537h273l-54 448z" />
<glyph unicode="&#xc4;" horiz-adv-x="1349" d="M41 0l707 1462h407l195 -1462h-355l-28 211h-465l-105 -211h-356zM655 537h273l-54 448zM655 1653q0 57 37.5 96t102.5 39q52 0 82 -33t30 -84t-34 -90t-97 -39q-57 0 -89 32.5t-32 78.5zM1014 1653q0 57 37 96t102 39q51 0 82 -33t31 -84t-35 -90t-98 -39 q-56 0 -87.5 32.5t-31.5 78.5z" />
<glyph unicode="&#xc5;" horiz-adv-x="1349" d="M41 0l707 1462h407l195 -1462h-355l-28 211h-465l-105 -211h-356zM655 537h273l-54 448zM776 1661q0 79 56.5 140t152.5 61q85 0 130.5 -48.5t45.5 -117.5q0 -78 -57.5 -137.5t-155.5 -59.5q-84 0 -128 47t-44 115zM838 1671q0 -46 31 -79t89 -33q65 0 102.5 39t37.5 90 q0 48 -31.5 81t-89.5 33q-64 0 -101.5 -40t-37.5 -91z" />
<glyph unicode="&#xc6;" horiz-adv-x="1650" d="M35 0l938 1462h868l-45 -270h-399l-56 -307h379l-49 -273h-379l-61 -340h401l-49 -272h-754l72 408h-254l-246 -408h-366zM784 680h164l76 418z" />
<glyph unicode="&#xc7;" horiz-adv-x="1363" d="M131 657q0 121 35.5 238t109 223t176 186t247.5 127.5t313 47.5q260 0 407 -84l-67 -381q-70 48 -147.5 71t-225.5 23q-98 0 -179.5 -36t-133 -95.5t-79.5 -132t-28 -148.5q0 -68 22.5 -128t65.5 -108.5t114 -77t161 -28.5q105 0 178.5 25t150.5 70l-67 -392 q-63 -37 -129 -58t-174 -24l-25 -61q34 -18 53 -51.5t19 -71.5q0 -76 -45.5 -121t-137.5 -45q-78 0 -165 49l61 146q37 -25 74 -25q26 0 40.5 15.5t14.5 39.5q0 32 -43 60l29 72q-153 15 -274.5 76.5t-197 154.5t-114.5 206t-39 238z" />
<glyph unicode="&#xc8;" horiz-adv-x="1013" d="M127 0l258 1462h784l-53 -313h-430l-47 -260h405l-55 -314h-405l-47 -262h430l-54 -313h-786zM514 1784l111 114l221 -286l-49 -47z" />
<glyph unicode="&#xc9;" horiz-adv-x="1013" d="M127 0l258 1462h784l-53 -313h-430l-47 -260h405l-55 -314h-405l-47 -262h430l-54 -313h-786zM715 1571l213 274l104 -106l-276 -203z" />
<glyph unicode="&#xca;" horiz-adv-x="1013" d="M127 0l258 1462h784l-53 -313h-430l-47 -260h405l-55 -314h-405l-47 -262h430l-54 -313h-786zM543 1632l243 246h70l193 -246l-48 -39l-192 131l-221 -131z" />
<glyph unicode="&#xcb;" horiz-adv-x="1013" d="M127 0l258 1462h784l-53 -313h-430l-47 -260h405l-55 -314h-405l-47 -262h430l-54 -313h-786zM494 1653q0 57 37 96t102 39q52 0 82 -33t30 -84t-34 -90t-97 -39q-57 0 -88.5 32.5t-31.5 78.5zM852 1653q0 57 37 96t102 39q51 0 82 -33t31 -84t-35 -90t-98 -39 q-56 0 -87.5 32.5t-31.5 78.5z" />
<glyph unicode="&#xcc;" horiz-adv-x="636" d="M139 0l258 1462h355l-256 -1462h-357zM238 1784l110 114l223 -286l-51 -47z" />
<glyph unicode="&#xcd;" horiz-adv-x="636" d="M139 0l258 1462h355l-256 -1462h-357zM555 1571l215 274l104 -106l-276 -203z" />
<glyph unicode="&#xce;" horiz-adv-x="636" d="M139 0l258 1462h355l-256 -1462h-357zM342 1632l246 246h67l193 -246l-45 -39l-193 131l-221 -131z" />
<glyph unicode="&#xcf;" horiz-adv-x="636" d="M139 0l258 1462h355l-256 -1462h-357zM295 1653q0 57 37 96t102 39q53 0 83 -33t30 -84t-34 -90t-97 -39q-57 0 -89 32.5t-32 78.5zM653 1653q0 57 37.5 96t102.5 39q51 0 81.5 -33t30.5 -84t-35 -90t-98 -39q-56 0 -87.5 32.5t-31.5 78.5z" />
<glyph unicode="&#xd0;" horiz-adv-x="1409" d="M88 641l31 184h151l113 637h408q138 0 253 -38t194.5 -103t135 -152.5t81.5 -186.5t26 -206q0 -115 -30.5 -226t-95 -211t-155 -175t-220.5 -119.5t-282 -44.5h-573l113 641h-150zM535 311h141q98 0 181 40.5t137.5 107.5t85 152t30.5 175q0 73 -22.5 137t-66.5 115.5 t-117.5 81t-168.5 29.5h-51l-57 -324h196l-30 -184h-199z" />
<glyph unicode="&#xd1;" d="M147 0l259 1462h331l568 -891l155 891h361l-258 -1462h-355l-546 858l-150 -858h-365zM717 1642q45 53 96.5 81t132.5 28q70 0 150 -39q2 -1 14 -8t14.5 -8.5t13 -7.5t15.5 -7.5t15 -5t17 -5t17.5 -2.5t20.5 -1q53 0 83.5 18.5t65.5 57.5l76 -74q-45 -52 -98 -80 t-140 -28q-71 0 -143 41q-22 14 -36.5 22t-39.5 14.5t-55 6.5q-39 0 -67 -12t-39 -23t-37 -41z" />
<glyph unicode="&#xd2;" d="M186 684q0 118 33 232t101 216t163.5 179t230 122.5t290.5 45.5q145 0 267.5 -39t208 -106.5t145 -158t88 -192.5t28.5 -211q0 -119 -32.5 -232.5t-100.5 -214.5t-164 -177t-231 -120t-293 -44q-180 0 -323 58.5t-231 157t-134 222.5t-46 262zM555 692q0 -161 101.5 -270 t289.5 -109q102 0 184.5 38t134.5 101.5t79.5 144t27.5 169.5q0 71 -24.5 137t-71 121t-123 88t-170.5 33q-102 0 -185 -38t-135 -102t-80 -144.5t-28 -168.5zM791 1784l110 114l221 -286l-51 -47z" />
<glyph unicode="&#xd3;" d="M186 684q0 118 33 232t101 216t163.5 179t230 122.5t290.5 45.5q145 0 267.5 -39t208 -106.5t145 -158t88 -192.5t28.5 -211q0 -119 -32.5 -232.5t-100.5 -214.5t-164 -177t-231 -120t-293 -44q-180 0 -323 58.5t-231 157t-134 222.5t-46 262zM555 692q0 -161 101.5 -270 t289.5 -109q102 0 184.5 38t134.5 101.5t79.5 144t27.5 169.5q0 71 -24.5 137t-71 121t-123 88t-170.5 33q-102 0 -185 -38t-135 -102t-80 -144.5t-28 -168.5zM1044 1571l213 274l105 -106l-275 -203z" />
<glyph unicode="&#xd4;" d="M186 684q0 118 33 232t101 216t163.5 179t230 122.5t290.5 45.5q145 0 267.5 -39t208 -106.5t145 -158t88 -192.5t28.5 -211q0 -119 -32.5 -232.5t-100.5 -214.5t-164 -177t-231 -120t-293 -44q-180 0 -323 58.5t-231 157t-134 222.5t-46 262zM555 692q0 -161 101.5 -270 t289.5 -109q102 0 184.5 38t134.5 101.5t79.5 144t27.5 169.5q0 71 -24.5 137t-71 121t-123 88t-170.5 33q-102 0 -185 -38t-135 -102t-80 -144.5t-28 -168.5zM754 1632l245 246h68l193 -246l-46 -39l-192 131l-221 -131z" />
<glyph unicode="&#xd5;" d="M186 684q0 118 33 232t101 216t163.5 179t230 122.5t290.5 45.5q145 0 267.5 -39t208 -106.5t145 -158t88 -192.5t28.5 -211q0 -119 -32.5 -232.5t-100.5 -214.5t-164 -177t-231 -120t-293 -44q-180 0 -323 58.5t-231 157t-134 222.5t-46 262zM555 692q0 -161 101.5 -270 t289.5 -109q102 0 184.5 38t134.5 101.5t79.5 144t27.5 169.5q0 71 -24.5 137t-71 121t-123 88t-170.5 33q-102 0 -185 -38t-135 -102t-80 -144.5t-28 -168.5zM692 1642q45 52 97 80.5t133 28.5q69 0 149 -39q2 -1 14 -8t14.5 -8.5t13 -7.5t15.5 -7.5t15 -5t17 -5t17.5 -2.5 t20.5 -1q37 0 66 11.5t45 25.5t39 39l75 -74q-45 -52 -97.5 -80t-139.5 -28q-72 0 -144 41q-22 14 -36.5 22t-39.5 14.5t-55 6.5q-39 0 -67 -12t-39 -23t-37 -41z" />
<glyph unicode="&#xd6;" d="M186 684q0 118 33 232t101 216t163.5 179t230 122.5t290.5 45.5q145 0 267.5 -39t208 -106.5t145 -158t88 -192.5t28.5 -211q0 -119 -32.5 -232.5t-100.5 -214.5t-164 -177t-231 -120t-293 -44q-180 0 -323 58.5t-231 157t-134 222.5t-46 262zM555 692q0 -161 101.5 -270 t289.5 -109q102 0 184.5 38t134.5 101.5t79.5 144t27.5 169.5q0 71 -24.5 137t-71 121t-123 88t-170.5 33q-102 0 -185 -38t-135 -102t-80 -144.5t-28 -168.5zM737 1653q0 57 37.5 96t102.5 39q52 0 82 -33t30 -84t-34 -90t-97 -39q-57 0 -89 32.5t-32 78.5zM1096 1653 q0 57 37 96t102 39q51 0 82 -33t31 -84t-35.5 -90t-98.5 -39q-56 0 -87 32.5t-31 78.5z" />
<glyph unicode="&#xd7;" horiz-adv-x="1155" d="M78 115l401 403l-401 402l98 98l402 -404l403 404l98 -98l-403 -402l403 -403l-98 -99l-403 404l-402 -404z" />
<glyph unicode="&#xd8;" d="M186 684q0 118 33 232t101 216t163.5 179t230 122.5t290.5 45.5q207 0 370 -80l84 106h209l-158 -198q114 -97 173 -237.5t59 -297.5q0 -119 -32.5 -232.5t-100.5 -214.5t-164 -177t-231 -120t-293 -44q-223 0 -390 90l-92 -115h-209l166 211q-103 97 -156 230.5 t-53 283.5zM555 692q0 -131 72 -235l520 657q-73 31 -164 31q-102 0 -185 -38t-135 -102t-80 -144.5t-28 -168.5zM754 354q77 -41 192 -41q102 0 184.5 38t134.5 101.5t79.5 144t27.5 169.5q0 145 -92 254z" />
<glyph unicode="&#xd9;" horiz-adv-x="1320" d="M190 422q0 55 13 131l159 909h355l-164 -930q-4 -32 -4 -49q0 -82 52 -123t128 -41q89 0 150 46t79 143l168 954h355l-181 -1030q-40 -226 -203 -336t-421 -110q-103 0 -189.5 26.5t-153.5 78.5t-105 136.5t-38 194.5zM610 1784l111 114l221 -286l-49 -47z" />
<glyph unicode="&#xda;" horiz-adv-x="1320" d="M190 422q0 55 13 131l159 909h355l-164 -930q-4 -32 -4 -49q0 -82 52 -123t128 -41q89 0 150 46t79 143l168 954h355l-181 -1030q-40 -226 -203 -336t-421 -110q-103 0 -189.5 26.5t-153.5 78.5t-105 136.5t-38 194.5zM895 1571l213 274l104 -106l-276 -203z" />
<glyph unicode="&#xdb;" horiz-adv-x="1320" d="M190 422q0 55 13 131l159 909h355l-164 -930q-4 -32 -4 -49q0 -82 52 -123t128 -41q89 0 150 46t79 143l168 954h355l-181 -1030q-40 -226 -203 -336t-421 -110q-103 0 -189.5 26.5t-153.5 78.5t-105 136.5t-38 194.5zM682 1632l244 246h69l193 -246l-47 -39l-193 131 l-221 -131z" />
<glyph unicode="&#xdc;" horiz-adv-x="1320" d="M190 422q0 55 13 131l159 909h355l-164 -930q-4 -32 -4 -49q0 -82 52 -123t128 -41q89 0 150 46t79 143l168 954h355l-181 -1030q-40 -226 -203 -336t-421 -110q-103 0 -189.5 26.5t-153.5 78.5t-105 136.5t-38 194.5zM631 1653q0 57 37 96t102 39q53 0 83 -33t30 -84 t-34 -90t-97 -39q-57 0 -89 32.5t-32 78.5zM989 1653q0 57 37 96t102 39q51 0 82 -33t31 -84t-35 -90t-98 -39q-56 0 -87.5 32.5t-31.5 78.5z" />
<glyph unicode="&#xdd;" horiz-adv-x="1320" d="M297 1462h399l172 -381l293 381h418l-590 -721l-133 -741h-354l131 741zM858 1571l213 274l105 -106l-277 -203z" />
<glyph unicode="&#xde;" horiz-adv-x="1175" d="M125 0l258 1462h354l-43 -245h117q212 0 338.5 -118t126.5 -313q0 -233 -152 -361t-417 -128h-177l-51 -297h-354zM586 610h159q75 0 124 42t49 120q0 56 -35.5 93.5t-94.5 37.5h-149z" />
<glyph unicode="&#xdf;" horiz-adv-x="1396" d="M166 649l51 293h115l18 107q35 202 172.5 307.5t362.5 105.5q137 0 240.5 -38t165 -119.5t61.5 -198.5q0 -88 -38 -144t-110 -94q39 -9 74 -28.5t70.5 -56t57 -100.5t21.5 -148q0 -268 -139 -401.5t-383 -133.5h-217l45 272h127q94 0 158.5 59.5t64.5 190.5 q0 99 -66.5 145t-201.5 46l43 248q36 0 62 4t51 16t38 37t13 63q0 54 -38 82.5t-107 28.5q-73 0 -117.5 -46.5t-57.5 -123.5l-180 -1022h-354l113 649h-115z" />
<glyph unicode="&#xe0;" horiz-adv-x="1234" d="M145 422q0 99 34.5 192.5t100.5 170t173 123t239 46.5q178 0 275 -73l14 69h313l-168 -950h-313l10 59q-97 -79 -264 -79q-99 0 -179 37t-130.5 99t-77.5 141t-27 165zM483 1382l127 127l254 -325l-55 -58zM494 459q0 -75 49 -129t139 -54q98 0 155.5 64t57.5 147 q0 75 -49 129t-139 54q-98 0 -155.5 -64t-57.5 -147z" />
<glyph unicode="&#xe1;" horiz-adv-x="1234" d="M145 422q0 99 34.5 192.5t100.5 170t173 123t239 46.5q178 0 275 -73l14 69h313l-168 -950h-313l10 59q-97 -79 -264 -79q-99 0 -179 37t-130.5 99t-77.5 141t-27 165zM494 459q0 -75 49 -129t139 -54q98 0 155.5 64t57.5 147q0 75 -49 129t-139 54q-98 0 -155.5 -64 t-57.5 -147zM659 1184l256 325l127 -127l-329 -243z" />
<glyph unicode="&#xe2;" horiz-adv-x="1234" d="M145 422q0 99 34.5 192.5t100.5 170t173 123t239 46.5q178 0 275 -73l14 69h313l-168 -950h-313l10 59q-97 -79 -264 -79q-99 0 -179 37t-130.5 99t-77.5 141t-27 165zM494 459q0 -75 49 -129t139 -54q98 0 155.5 64t57.5 147q0 75 -49 129t-139 54q-98 0 -155.5 -64 t-57.5 -147zM508 1165l272 275h74l213 -275l-49 -45l-213 146l-248 -146z" />
<glyph unicode="&#xe3;" horiz-adv-x="1234" d="M145 422q0 99 34.5 192.5t100.5 170t173 123t239 46.5q178 0 275 -73l14 69h313l-168 -950h-313l10 59q-97 -79 -264 -79q-99 0 -179 37t-130.5 99t-77.5 141t-27 165zM393 1235q49 59 106.5 90t149.5 31q78 0 166 -43q2 -1 13.5 -8t14.5 -8.5t13 -7t15 -7.5t14.5 -6 t16 -5t16 -3.5t19 -3t19.5 -0.5q59 0 94 21t72 63l84 -82q-50 -59 -108.5 -90t-155.5 -31q-84 0 -160 45q-26 16 -40.5 24t-42.5 15.5t-62 7.5q-32 0 -55.5 -5.5t-44 -20t-29.5 -24t-31 -34.5zM494 459q0 -75 49 -129t139 -54q98 0 155.5 64t57.5 147q0 75 -49 129t-139 54 q-98 0 -155.5 -64t-57.5 -147z" />
<glyph unicode="&#xe4;" horiz-adv-x="1234" d="M145 422q0 99 34.5 192.5t100.5 170t173 123t239 46.5q178 0 275 -73l14 69h313l-168 -950h-313l10 59q-97 -79 -264 -79q-99 0 -179 37t-130.5 99t-77.5 141t-27 165zM465 1280q0 71 46.5 120.5t127.5 49.5q65 0 103 -41t38 -104q0 -65 -43.5 -113.5t-122.5 -48.5 q-70 0 -109.5 40.5t-39.5 96.5zM494 459q0 -75 49 -129t139 -54q98 0 155.5 64t57.5 147q0 75 -49 129t-139 54q-98 0 -155.5 -64t-57.5 -147zM870 1280q0 71 46.5 120.5t127.5 49.5q65 0 103.5 -41t38.5 -104q0 -65 -43.5 -113.5t-122.5 -48.5q-70 0 -110 40.5t-40 96.5z " />
<glyph unicode="&#xe5;" horiz-adv-x="1234" d="M145 422q0 99 34.5 192.5t100.5 170t173 123t239 46.5q178 0 275 -73l14 69h313l-168 -950h-313l10 59q-97 -79 -264 -79q-99 0 -179 37t-130.5 99t-77.5 141t-27 165zM494 459q0 -75 49 -129t139 -54q98 0 155.5 64t57.5 147q0 75 -49 129t-139 54q-98 0 -155.5 -64 t-57.5 -147zM586 1229q0 89 62.5 156t170.5 67q93 0 145 -54t52 -130q0 -86 -64 -152.5t-174 -66.5q-93 0 -142.5 52.5t-49.5 127.5zM655 1239q0 -51 34.5 -88t98.5 -37q72 0 114 44t42 102q0 53 -35 89.5t-100 36.5q-71 0 -112.5 -44.5t-41.5 -102.5z" />
<glyph unicode="&#xe6;" horiz-adv-x="1990" d="M145 422q0 99 34.5 192.5t100.5 170t173 123t239 46.5q178 0 275 -73l14 69h313l-4 -18q34 15 83 27t85 12q123 0 220 -40t155 -106.5t87.5 -145.5t29.5 -165q0 -53 -13 -113h-661q0 -85 35 -126.5t123 -41.5q72 0 106 21t51 55h314q-17 -49 -36.5 -88.5t-59 -87.5 t-89.5 -80t-130 -54t-179 -22q-163 0 -276 74l-9 -51h-313l10 59q-97 -79 -264 -79q-99 0 -179 37t-130.5 99t-77.5 141t-27 165zM494 459q0 -75 49 -129t139 -54q98 0 155.5 64t57.5 147q0 75 -49 129t-139 54q-98 0 -155.5 -64t-57.5 -147zM1298 604h310q0 24 -7 45 t-22 40.5t-46 31.5t-73 12q-78 0 -115.5 -38t-46.5 -91z" />
<glyph unicode="&#xe7;" horiz-adv-x="868" d="M119 410q0 100 35.5 195.5t101 174t170.5 126.5t233 48q166 0 295 -55l-53 -307q-35 20 -54 29t-61.5 18.5t-95.5 9.5q-91 0 -144.5 -59.5t-53.5 -136.5q0 -66 42.5 -112t122.5 -46q66 0 109 16.5t94 50.5l-55 -315q-96 -64 -246 -70l-27 -61q31 -17 47.5 -47t16.5 -64 q0 -62 -44 -94.5t-108 -32.5q-69 0 -147 43l41 109q41 -23 68 -23q23 0 36 15t13 37q0 29 -39 53l35 74q-160 27 -246 145.5t-86 278.5z" />
<glyph unicode="&#xe8;" horiz-adv-x="1107" d="M121 449q0 99 34.5 191t98.5 166.5t167.5 119.5t229.5 45q123 0 220 -40t155 -106.5t87.5 -145.5t29.5 -165q0 -53 -13 -113h-661q0 -85 35 -126.5t123 -41.5q72 0 106 21t51 55h314q-17 -49 -36.5 -88.5t-59 -87.5t-89.5 -80t-130 -54t-179 -22q-95 0 -175 26t-136 71 t-95.5 105.5t-58 128.5t-18.5 141zM379 1382l127 127l254 -325l-55 -58zM492 604h309q0 24 -7 45t-22 40.5t-46 31.5t-73 12q-138 0 -161 -129z" />
<glyph unicode="&#xe9;" horiz-adv-x="1107" d="M121 449q0 99 34.5 191t98.5 166.5t167.5 119.5t229.5 45q123 0 220 -40t155 -106.5t87.5 -145.5t29.5 -165q0 -53 -13 -113h-661q0 -85 35 -126.5t123 -41.5q72 0 106 21t51 55h314q-17 -49 -36.5 -88.5t-59 -87.5t-89.5 -80t-130 -54t-179 -22q-95 0 -175 26t-136 71 t-95.5 105.5t-58 128.5t-18.5 141zM492 604h309q0 24 -7 45t-22 40.5t-46 31.5t-73 12q-138 0 -161 -129zM627 1184l256 325l127 -127l-330 -243z" />
<glyph unicode="&#xea;" horiz-adv-x="1107" d="M121 449q0 99 34.5 191t98.5 166.5t167.5 119.5t229.5 45q123 0 220 -40t155 -106.5t87.5 -145.5t29.5 -165q0 -53 -13 -113h-661q0 -85 35 -126.5t123 -41.5q72 0 106 21t51 55h314q-17 -49 -36.5 -88.5t-59 -87.5t-89.5 -80t-130 -54t-179 -22q-95 0 -175 26t-136 71 t-95.5 105.5t-58 128.5t-18.5 141zM428 1165l272 275h76l213 -275l-51 -45l-213 146l-246 -146zM492 604h309q0 24 -7 45t-22 40.5t-46 31.5t-73 12q-138 0 -161 -129z" />
<glyph unicode="&#xeb;" horiz-adv-x="1107" d="M121 449q0 99 34.5 191t98.5 166.5t167.5 119.5t229.5 45q123 0 220 -40t155 -106.5t87.5 -145.5t29.5 -165q0 -53 -13 -113h-661q0 -85 35 -126.5t123 -41.5q72 0 106 21t51 55h314q-17 -49 -36.5 -88.5t-59 -87.5t-89.5 -80t-130 -54t-179 -22q-95 0 -175 26t-136 71 t-95.5 105.5t-58 128.5t-18.5 141zM387 1280q0 71 46.5 120.5t127.5 49.5q65 0 103 -41t38 -104q0 -65 -43 -113.5t-122 -48.5q-70 0 -110 40.5t-40 96.5zM492 604h309q0 24 -7 45t-22 40.5t-46 31.5t-73 12q-138 0 -161 -129zM793 1280q0 71 46.5 120.5t127.5 49.5 q65 0 103 -41t38 -104q0 -65 -43.5 -113.5t-122.5 -48.5q-70 0 -109.5 40.5t-39.5 96.5z" />
<glyph unicode="&#xec;" horiz-adv-x="540" d="M135 0l168 942h354l-165 -942h-357zM174 1382l127 127l254 -325l-55 -58z" />
<glyph unicode="&#xed;" horiz-adv-x="540" d="M135 0l168 942h354l-165 -942h-357zM442 1184l256 325l127 -127l-329 -243z" />
<glyph unicode="&#xee;" horiz-adv-x="540" d="M135 0l168 942h354l-165 -942h-357zM223 1165l273 275h75l213 -275l-51 -45l-213 146l-246 -146z" />
<glyph unicode="&#xef;" horiz-adv-x="540" d="M135 0l168 942h354l-165 -942h-357zM150 1280q0 71 46.5 120.5t127.5 49.5q65 0 103 -41t38 -104q0 -65 -43.5 -113.5t-122.5 -48.5q-70 0 -109.5 40.5t-39.5 96.5zM555 1280q0 71 46.5 120.5t127.5 49.5q65 0 103 -41t38 -104q0 -65 -43 -113.5t-122 -48.5 q-70 0 -110 40.5t-40 96.5z" />
<glyph unicode="&#xf0;" horiz-adv-x="1122" d="M135 440q0 79 22 155t68 144t109.5 120t153.5 82t194 30q48 0 92 -6q-64 152 -172 241l-242 -151l-129 82l244 157q-158 93 -309 144l158 155q218 -69 366 -166l234 144l129 -84l-224 -137q168 -113 258.5 -329t90.5 -511q0 -103 -37 -198.5t-104.5 -171.5t-174.5 -121.5 t-237 -45.5q-97 0 -178 25.5t-138 70t-97 104.5t-58.5 127t-18.5 140zM469 461q0 -77 46.5 -131t129.5 -54q91 0 143 63t52 146q0 76 -45.5 130.5t-128.5 54.5q-91 0 -144 -63t-53 -146z" />
<glyph unicode="&#xf1;" horiz-adv-x="1191" d="M90 0l178 942h344l-16 -86q98 102 291 102q155 0 246.5 -87.5t91.5 -243.5q0 -37 -11 -105l-92 -522h-356l90 514q4 18 4 53q0 67 -33.5 107.5t-97.5 40.5q-47 0 -82.5 -17t-57 -45.5t-33 -58.5t-17.5 -64l-95 -530h-354zM365 1235q49 59 106.5 90t149.5 31q77 0 165 -43 q2 -1 12.5 -7.5t13 -7.5t12 -6.5t13 -7t12.5 -5.5t14 -5t14 -4t16.5 -3.5t16.5 -1.5t18 -1q59 0 94 21t72 63l84 -82q-49 -59 -108.5 -90t-156.5 -31q-83 0 -159 45q-25 16 -40 24t-43.5 15.5t-62.5 7.5q-32 0 -55.5 -5t-44 -20.5t-29 -24t-30.5 -34.5z" />
<glyph unicode="&#xf2;" horiz-adv-x="1122" d="M135 440q0 79 22 155t68 144t109.5 120t153.5 82t194 30q118 0 213 -39t154 -105.5t90.5 -149t31.5 -173.5q0 -104 -35.5 -198t-102.5 -169t-172.5 -119.5t-235.5 -44.5q-97 0 -178 25.5t-138 70t-97 104.5t-58.5 127t-18.5 140zM440 1382l129 127l254 -325l-57 -58z M469 461q0 -77 46.5 -131t129.5 -54q91 0 143 63t52 146q0 76 -45.5 130.5t-128.5 54.5q-91 0 -144 -63t-53 -146z" />
<glyph unicode="&#xf3;" horiz-adv-x="1122" d="M135 440q0 79 22 155t68 144t109.5 120t153.5 82t194 30q118 0 213 -39t154 -105.5t90.5 -149t31.5 -173.5q0 -104 -35.5 -198t-102.5 -169t-172.5 -119.5t-235.5 -44.5q-97 0 -178 25.5t-138 70t-97 104.5t-58.5 127t-18.5 140zM469 461q0 -77 46.5 -131t129.5 -54 q91 0 143 63t52 146q0 76 -45.5 130.5t-128.5 54.5q-91 0 -144 -63t-53 -146zM643 1184l256 325l127 -127l-330 -243z" />
<glyph unicode="&#xf4;" horiz-adv-x="1122" d="M135 440q0 79 22 155t68 144t109.5 120t153.5 82t194 30q118 0 213 -39t154 -105.5t90.5 -149t31.5 -173.5q0 -104 -35.5 -198t-102.5 -169t-172.5 -119.5t-235.5 -44.5q-97 0 -178 25.5t-138 70t-97 104.5t-58.5 127t-18.5 140zM449 1165l272 275h76l213 -275l-52 -45 l-213 146l-245 -146zM469 461q0 -77 46.5 -131t129.5 -54q91 0 143 63t52 146q0 76 -45.5 130.5t-128.5 54.5q-91 0 -144 -63t-53 -146z" />
<glyph unicode="&#xf5;" horiz-adv-x="1122" d="M135 440q0 79 22 155t68 144t109.5 120t153.5 82t194 30q118 0 213 -39t154 -105.5t90.5 -149t31.5 -173.5q0 -104 -35.5 -198t-102.5 -169t-172.5 -119.5t-235.5 -44.5q-97 0 -178 25.5t-138 70t-97 104.5t-58.5 127t-18.5 140zM360 1235q49 59 106.5 90t149.5 31 q78 0 166 -43q2 -1 12.5 -7.5t13 -7.5t12 -6.5t13 -7t12.5 -5.5t14 -5t14 -4t16.5 -3.5t16.5 -1.5t18 -1q59 0 94 21t72 63l84 -82q-49 -59 -108.5 -90t-156.5 -31q-83 0 -159 45q-25 16 -40 24t-43.5 15.5t-62.5 7.5q-32 0 -55.5 -5.5t-44 -20t-29.5 -24t-31 -34.5z M469 461q0 -77 46.5 -131t129.5 -54q91 0 143 63t52 146q0 76 -45.5 130.5t-128.5 54.5q-91 0 -144 -63t-53 -146z" />
<glyph unicode="&#xf6;" horiz-adv-x="1122" d="M135 440q0 79 22 155t68 144t109.5 120t153.5 82t194 30q118 0 213 -39t154 -105.5t90.5 -149t31.5 -173.5q0 -104 -35.5 -198t-102.5 -169t-172.5 -119.5t-235.5 -44.5q-97 0 -178 25.5t-138 70t-97 104.5t-58.5 127t-18.5 140zM389 1280q0 71 46.5 120.5t127.5 49.5 q65 0 103.5 -41t38.5 -104q0 -65 -43.5 -113.5t-122.5 -48.5q-70 0 -110 40.5t-40 96.5zM469 461q0 -77 46.5 -131t129.5 -54q91 0 143 63t52 146q0 76 -45.5 130.5t-128.5 54.5q-91 0 -144 -63t-53 -146zM795 1280q0 71 46.5 120.5t127.5 49.5q65 0 103 -41t38 -104 q0 -65 -43.5 -113.5t-122.5 -48.5q-70 0 -109.5 40.5t-39.5 96.5z" />
<glyph unicode="&#xf7;" horiz-adv-x="866" d="M205 500l24 145h627l-25 -145h-626zM297 176q0 66 48 120t128 54q78 0 119 -42t41 -103q0 -73 -46 -126.5t-132 -53.5q-79 0 -118.5 42.5t-39.5 108.5zM422 963q0 66 48 119t128 53q79 0 119.5 -42t40.5 -104q0 -72 -46 -126t-132 -54q-79 0 -118.5 43.5t-39.5 110.5z " />
<glyph unicode="&#xf8;" horiz-adv-x="1122" d="M135 440q0 79 22 155t68 144t109.5 120t153.5 82t194 30q142 0 252 -58l65 86h131l-108 -147q73 -64 111 -155.5t38 -192.5q0 -104 -35.5 -198t-102.5 -169t-172.5 -119.5t-235.5 -44.5q-132 0 -238 50l-57 -70h-131l98 125q-80 66 -121 160.5t-41 201.5zM469 461 q0 -77 46.5 -131t129.5 -54q91 0 143 63t52 146q0 76 -45.5 130.5t-128.5 54.5q-91 0 -144 -63t-53 -146z" />
<glyph unicode="&#xf9;" horiz-adv-x="1132" d="M170 340q0 49 8 96l90 506h355l-95 -524q-4 -24 -4 -37q0 -52 28.5 -81.5t86.5 -29.5t93.5 35.5t43.5 83.5l98 553h355l-111 -625q-28 -153 -165 -246.5t-345 -93.5q-205 0 -321.5 95.5t-116.5 267.5zM453 1382l129 127l254 -325l-56 -58z" />
<glyph unicode="&#xfa;" horiz-adv-x="1132" d="M170 340q0 49 8 96l90 506h355l-95 -524q-4 -24 -4 -37q0 -52 28.5 -81.5t86.5 -29.5t93.5 35.5t43.5 83.5l98 553h355l-111 -625q-28 -153 -165 -246.5t-345 -93.5q-205 0 -321.5 95.5t-116.5 267.5zM702 1184l254 325l129 -127l-331 -243z" />
<glyph unicode="&#xfb;" horiz-adv-x="1132" d="M170 340q0 49 8 96l90 506h355l-95 -524q-4 -24 -4 -37q0 -52 28.5 -81.5t86.5 -29.5t93.5 35.5t43.5 83.5l98 553h355l-111 -625q-28 -153 -165 -246.5t-345 -93.5q-205 0 -321.5 95.5t-116.5 267.5zM496 1165l270 275h76l213 -275l-49 -45l-213 146l-248 -146z" />
<glyph unicode="&#xfc;" horiz-adv-x="1132" d="M170 340q0 49 8 96l90 506h355l-95 -524q-4 -24 -4 -37q0 -52 28.5 -81.5t86.5 -29.5t93.5 35.5t43.5 83.5l98 553h355l-111 -625q-28 -153 -165 -246.5t-345 -93.5q-205 0 -321.5 95.5t-116.5 267.5zM418 1280q0 71 46.5 120.5t127.5 49.5q65 0 103 -41t38 -104 q0 -65 -43.5 -113.5t-122.5 -48.5q-70 0 -109.5 40.5t-39.5 96.5zM823 1280q0 71 46.5 120.5t127.5 49.5q65 0 103.5 -41t38.5 -104q0 -65 -43.5 -113.5t-122.5 -48.5q-70 0 -110 40.5t-40 96.5z" />
<glyph unicode="&#xfd;" horiz-adv-x="1306" d="M100 -422l406 559l-307 813h352l186 -504l361 504h354l-997 -1372h-355zM721 1184l256 325l127 -127l-330 -243z" />
<glyph unicode="&#xfe;" horiz-adv-x="1226" d="M49 -422l346 1938h314l-113 -627q99 78 246 78q108 0 194.5 -38.5t140.5 -103t82.5 -145t28.5 -168.5q0 -77 -20.5 -151.5t-64 -141.5t-104.5 -117.5t-148 -80t-189 -29.5q-84 0 -146.5 13t-93 28t-71.5 43l-86 -498h-316zM532 467q0 -75 49.5 -128.5t139.5 -53.5 q98 0 155.5 64t57.5 147q0 75 -49.5 128.5t-139.5 53.5q-98 0 -155.5 -64t-57.5 -147z" />
<glyph unicode="&#xff;" horiz-adv-x="1306" d="M100 -422l406 559l-307 813h352l186 -504l361 504h354l-997 -1372h-355zM520 1280q0 71 46.5 120.5t127.5 49.5q65 0 103.5 -41t38.5 -104q0 -65 -43.5 -113.5t-122.5 -48.5q-70 0 -110 40.5t-40 96.5zM926 1280q0 71 46.5 120.5t127.5 49.5q65 0 103 -41t38 -104 q0 -65 -43.5 -113.5t-122.5 -48.5q-70 0 -109.5 40.5t-39.5 96.5z" />
<glyph unicode="&#x152;" horiz-adv-x="2183" d="M137 684q0 118 33 232t101 216t163 179t229.5 122.5t290.5 45.5q185 0 328.5 -61.5t239.5 -170.5l37 215h745l-47 -270h-387l-55 -307h356l-47 -273h-355l-61 -340h387l-49 -272h-743l16 98q-188 -114 -449 -114q-145 0 -266.5 38.5t-206.5 104.5t-144.5 155t-87.5 190.5 t-28 211.5zM506 692q0 -161 101.5 -270t289.5 -109q102 0 184.5 38t134.5 101.5t79.5 144t27.5 169.5q0 71 -24.5 137t-71 121t-123 88t-170.5 33q-102 0 -185 -38t-135 -102t-80 -144.5t-28 -168.5z" />
<glyph unicode="&#x153;" horiz-adv-x="1849" d="M135 440q0 79 22 155t68 144t109.5 120t153.5 82t194 30q211 0 344 -123q143 123 354 123q123 0 220 -40t155 -106.5t87.5 -145.5t29.5 -165q0 -58 -12 -113h-662q0 -85 35 -126.5t123 -41.5q72 0 106 21t51 55h314q-17 -49 -36.5 -88.5t-59 -87.5t-89.5 -80t-130 -54 t-179 -22q-209 0 -340 121q-145 -125 -368 -125q-97 0 -178 25.5t-138 70t-97 104.5t-58.5 127t-18.5 140zM469 461q0 -77 46.5 -131t129.5 -54q91 0 143 63t52 146q0 76 -45.5 130.5t-128.5 54.5q-91 0 -144 -63t-53 -146zM1221 604h309q0 24 -7 45t-22 40.5t-46 31.5 t-73 12q-138 0 -161 -129z" />
<glyph unicode="&#x178;" horiz-adv-x="1320" d="M297 1462h399l172 -381l293 381h418l-590 -721l-133 -741h-354l131 741zM639 1653q0 57 37 96t102 39q53 0 83 -33t30 -84t-34 -90t-97 -39q-57 0 -89 32.5t-32 78.5zM997 1653q0 57 37.5 96t102.5 39q51 0 81.5 -33t30.5 -84t-35 -90t-98 -39q-56 0 -87.5 32.5 t-31.5 78.5z" />
<glyph unicode="&#x2c6;" horiz-adv-x="794" d="M131 1165l272 275h76l213 -275l-51 -45l-213 146l-246 -146z" />
<glyph unicode="&#x2dc;" horiz-adv-x="960" d="M74 1235q49 59 106.5 90t149.5 31q78 0 166 -43q2 -1 13.5 -8t14.5 -8.5t13 -7t15 -7.5t14.5 -6t16 -5t16 -3.5t19 -3t19.5 -0.5q59 0 94 21t72 63l84 -82q-50 -59 -108.5 -90t-155.5 -31q-84 0 -160 45q-25 16 -40 24t-43.5 15.5t-62.5 7.5q-32 0 -55.5 -5t-44 -20.5 t-29 -24t-30.5 -34.5z" />
<glyph unicode="&#x2000;" horiz-adv-x="949" />
<glyph unicode="&#x2001;" horiz-adv-x="1898" />
<glyph unicode="&#x2002;" horiz-adv-x="949" />
<glyph unicode="&#x2003;" horiz-adv-x="1898" />
<glyph unicode="&#x2004;" horiz-adv-x="632" />
<glyph unicode="&#x2005;" horiz-adv-x="474" />
<glyph unicode="&#x2006;" horiz-adv-x="316" />
<glyph unicode="&#x2007;" horiz-adv-x="316" />
<glyph unicode="&#x2008;" horiz-adv-x="237" />
<glyph unicode="&#x2009;" horiz-adv-x="379" />
<glyph unicode="&#x200a;" horiz-adv-x="105" />
<glyph unicode="&#x2010;" horiz-adv-x="825" d="M236 500l38 209h533l-37 -209h-534z" />
<glyph unicode="&#x2011;" horiz-adv-x="825" d="M236 500l38 209h533l-37 -209h-534z" />
<glyph unicode="&#x2012;" horiz-adv-x="825" d="M236 500l38 209h533l-37 -209h-534z" />
<glyph unicode="&#x2013;" horiz-adv-x="1191" d="M215 500l37 209h932l-39 -209h-930z" />
<glyph unicode="&#x2014;" horiz-adv-x="1714" d="M215 500l37 209h1464l-39 -209h-1462z" />
<glyph unicode="&#x2018;" horiz-adv-x="450" d="M348 1233q0 28 6 55l45 252h209l-37 -213h-79l-9 -51q-4 -32 -4 -45q0 -44 33 -125h-135q-29 73 -29 127z" />
<glyph unicode="&#x2019;" horiz-adv-x="450" d="M348 1106q45 66 66 114.5t32 106.5h-90l37 213h209l-33 -213q-11 -65 -32.5 -115t-65.5 -106h-123z" />
<glyph unicode="&#x201a;" horiz-adv-x="481" d="M158 -221q45 66 66 114.5t32 106.5h-90l37 213h209l-33 -213q-11 -65 -32.5 -115t-65.5 -106h-123z" />
<glyph unicode="&#x201c;" horiz-adv-x="751" d="M348 1233q0 28 6 55l45 252h209l-37 -213h-79l-9 -51q-4 -32 -4 -45q0 -44 33 -125h-135q-29 73 -29 127zM655 1233q0 23 7 55l45 252h208l-36 -213h-80l-8 -51q-5 -40 -5 -45q0 -44 33 -125h-135q-29 73 -29 127z" />
<glyph unicode="&#x201d;" horiz-adv-x="774" d="M369 1106q45 66 66 114.5t32 106.5h-90l37 213h209l-33 -213q-11 -65 -32.5 -115t-65.5 -106h-123zM676 1106q45 66 66 114.5t32 106.5h-90l37 213h209l-33 -213q-11 -65 -32.5 -115t-65.5 -106h-123z" />
<glyph unicode="&#x201e;" horiz-adv-x="774" d="M158 -221q45 66 66 114.5t32 106.5h-90l37 213h209l-33 -213q-11 -65 -32.5 -115t-65.5 -106h-123zM465 -221q45 66 66 114.5t32 106.5h-90l37 213h209l-33 -213q-11 -65 -32.5 -115t-65.5 -106h-123z" />
<glyph unicode="&#x2022;" horiz-adv-x="1024" d="M229 539q0 72 25.5 139.5t73.5 122.5t124.5 88t170.5 33q88 0 157.5 -29t112.5 -78.5t65.5 -110.5t22.5 -129q0 -72 -25.5 -139.5t-73 -122t-124 -87.5t-170.5 -33q-88 0 -158 29t-113 78t-65.5 110.5t-22.5 128.5z" />
<glyph unicode="&#x2026;" horiz-adv-x="1943" d="M205 158q0 72 54 132t142 60t133.5 -46.5t45.5 -115.5q0 -80 -51.5 -140t-147.5 -60q-87 0 -131.5 48t-44.5 122zM786 158q0 72 54.5 132t142.5 60t133 -46.5t45 -115.5q0 -80 -51 -140t-147 -60q-88 0 -132.5 48t-44.5 122zM1368 158q0 72 54.5 132t142.5 60t133 -46.5 t45 -115.5q0 -80 -51.5 -140t-147.5 -60q-87 0 -131.5 48t-44.5 122z" />
<glyph unicode="&#x202f;" horiz-adv-x="379" />
<glyph unicode="&#x2039;" horiz-adv-x="720" d="M111 543l28 168l516 338l121 -201l-366 -221l327 -258l-162 -217z" />
<glyph unicode="&#x203a;" horiz-adv-x="720" d="M84 381l403 246l-331 264l151 219l479 -399l-30 -168l-559 -361z" />
<glyph unicode="&#x205f;" horiz-adv-x="474" />
<glyph unicode="&#x2122;" horiz-adv-x="860" d="M293 1440l8 37h289l-8 -37h-127l-60 -355h-39l62 355h-125zM500 1087l155 396l72 -314l184 314v-396h-39v252l-163 -274l-66 281l-102 -259h-41z" />
<glyph unicode="&#xe000;" horiz-adv-x="942" d="M0 0v942h942v-942h-942z" />
</font>
</defs>
</svg>
